Simulation
nRows=35
nColumns=15
endheader
time  TH_x TH_y TH_z SC_y  SC_z  SC_x  AC_y  AC_z  AC_x  GH_y  GH_z  GH_yy  EL_x  PS_y
0.0  0.000000  0.000000  0.000000  -28.882621156423628  0.1818288645763585  -3.3410205359330534  55.27266178725342  8.659908606512268  -5.562393132323866  33.36323196805452  16.18642213500259  7.606153200710618  27.15962200044732  0.000000
0.038999999999999986  0.000000  0.000000  0.000000  -28.40438848305585  0.4114861092856542  -3.3709083327778337  54.93250142895413  8.577666225216996  -5.572951223662919  33.42026090326298  16.58856793217294  7.3248393396240825  26.737243962745747  0.000000
0.07799999999999997  0.000000  0.000000  0.000000  -27.99243285678016  0.5706133416231239  -3.499105090676767  54.56797764727891  8.467917892292046  -5.593652761836718  33.42647825406976  16.90959550633367  7.110499529855941  26.310143076815226  0.000000
0.11699999999999997  0.000000  0.000000  0.000000  -27.617951620786815  0.6464515784980538  -3.697790279852496  54.261123405111064  8.383041905804854  -5.606679991426399  33.473683770631474  17.206961631440453  6.861353084740409  25.901958624203147  0.000000
0.15599999999999994  0.000000  0.000000  0.000000  -27.324254878595045  0.6463000764421811  -3.9562658183503863  54.013279361581525  8.358039246633906  -5.591587193026241  33.75091450261981  17.56447720615843  6.315935047636622  25.53291656364071  0.000000
0.19499999999999992  0.000000  0.000000  0.000000  -27.106221916872368  0.5884115448000127  -4.211596650496046  53.90020790297513  8.405326283819457  -5.544194065980237  34.36409420464278  18.0558820390697  5.3276751888607095  25.222360532017287  0.000000
0.23399999999999993  0.000000  0.000000  0.000000  -26.986104904744607  0.5027552978016678  -4.423691066390016  53.88791833776988  8.51631908761112  -5.466424848789825  35.41563020185106  18.7441195102459  3.7293278587481975  24.98233053741431  0.000000
0.2729999999999999  0.000000  0.000000  0.000000  -26.94034718365772  0.4173463242220582  -4.538505796701126  54.01658349272087  8.68206343056545  -5.372288245262969  36.90432790254603  19.67203292643211  1.4905692375823492  24.81543733017523  0.000000
0.3119999999999999  0.000000  0.000000  0.000000  -26.96276140221608  0.3561699185406261  -4.528905701477792  54.222316176764856  8.874507786262743  -5.276036291416754  38.7500743443408  20.864539221654553  -1.3429287894788715  24.71840221847821  0.000000
0.35099999999999987  0.000000  0.000000  0.000000  -26.99655511637242  0.3341141378507081  -4.364039910375101  54.53121025125457  9.080512685037586  -5.196260570592914  40.79512773472541  22.318812936591776  -4.616019040354847  24.68093563312713  0.000000
0.38999999999999985  0.000000  0.000000  0.000000  -27.01815074269618  0.35982179637100936  -4.035892564226336  54.873858672032554  9.273640620052568  -5.143862433068127  42.85403168057866  24.013147523506483  -8.131786121089968  24.700441475748633  0.000000
0.4289999999999998  0.000000  0.000000  0.000000  -26.9648571391163  0.436939318624711  -3.530748278126726  55.27751415576563  9.449491353141145  -5.133652285194521  44.77235750578555  25.90051261101977  -11.705612529959726  24.768803119921763  0.000000
0.46799999999999986  0.000000  0.000000  0.000000  -26.832839445947286  0.5628528739634149  -2.8512797425036798  55.675629445092184  9.59306452601923  -5.171355843343379  46.447193641409676  27.92750857130071  -15.189924772321623  24.875028958243103  0.000000
0.5069999999999998  0.000000  0.000000  0.000000  -26.59029982162669  0.7366953964514589  -1.9951469599698703  56.100241568554644  9.70996623084924  -5.266404911936686  47.84763739787357  30.034300960283012  -18.515392544608275  24.999678738474266  0.000000
0.5459999999999998  0.000000  0.000000  0.000000  -26.272428603418902  0.9573002539117563  -0.9698183436517774  56.484434401362556  9.786460448971775  -5.416134439568361  48.99559593051412  32.17199164732825  -21.66052145807969  25.122992167746148  0.000000
0.5849999999999997  0.000000  0.000000  0.000000  -25.88893333967852  1.2239779481368502  0.21934590774733642  56.86656243674151  9.828109976194655  -5.6233019965954  49.94773215976779  34.30177865291909  -24.66171399008344  25.225053245803277  0.000000
0.6239999999999998  0.000000  0.000000  0.000000  -25.498182101914303  1.5362264664046155  1.558358135083361  57.18159343118994  9.818673122858275  -5.876175003113406  50.77071536954049  36.40046853683462  -27.56534318144738  25.293405296949345  0.000000
0.6629999999999998  0.000000  0.000000  0.000000  -25.120438902320206  1.8890624496994306  3.0308225805911895  57.479595698442445  9.767560578636765  -6.1695858048661645  51.51803586367677  38.455108807610046  -30.415610062242436  25.31777852099792  0.000000
0.7019999999999997  0.000000  0.000000  0.000000  -24.799721392817087  2.2804690286699048  4.616915362922447  57.711105749392964  9.666153099832039  -6.477692337715066  52.21563601496682  40.45401120820823  -33.21176293503773  25.296777479074184  0.000000
0.7409999999999998  0.000000  0.000000  0.000000  -24.52482102308845  2.704905778370488  6.292786761121354  57.935996786800715  9.531545069546688  -6.786477004971815  52.861158534373224  42.389150483441036  -35.918009338619214  25.229607275353768  0.000000
0.7799999999999997  0.000000  0.000000  0.000000  -24.314635851028665  3.159490746136161  8.038512038953687  58.122555235022084  9.365011762648912  -7.056577257099964  53.42214838272434  44.23834579609042  -38.44882107379962  25.121149907536864  0.000000
0.8189999999999997  0.000000  0.000000  0.000000  -24.138144101109177  3.6387935397527595  9.82026224756292  58.32699309801482  9.18578727233446  -7.272261093073725  53.866852327849884  45.990576687629506  -40.729504089339216  24.982687401978225  0.000000
0.8579999999999997  0.000000  0.000000  0.000000  -24.015715242584566  4.142084988613701  11.612175181630546  58.51677433954604  8.994058592831605  -7.39001371118226  54.15576970774393  47.61748384793643  -42.68487419057968  24.830410765436692  0.000000
0.8969999999999997  0.000000  0.000000  0.000000  -23.928676005154017  4.661498027125231  13.359179645719962  58.737337552094296  8.808780306953048  -7.400741328970101  54.27473652692419  49.1203874925299  -44.290926357993335  24.686770690068794  0.000000
0.9359999999999997  0.000000  0.000000  0.000000  -23.909306815835524  5.199710857975216  15.03265915321144  58.94901933947286  8.628902238859334  -7.270850506710243  54.21188046069575  50.48046631814163  -45.54304476885665  24.57118951100823  0.000000
0.9749999999999996  0.000000  0.000000  0.000000  -23.944494645594236  5.746556879804285  16.57161328394377  59.19175485089503  8.477965225043329  -7.006325688636113  53.97941785381682  51.71798979606839  -46.47256956820518  24.496234978298563  0.000000
1.0139999999999996  0.000000  0.000000  0.000000  -24.064236257161223  6.302213642785649  17.966847926123837  59.41820537560152  8.364788620827563  -6.59986329176347  53.60419534020578  52.82868470676607  -47.12999889807735  24.46316183928057  0.000000
1.0529999999999997  0.000000  0.000000  0.000000  -24.24805266800464  6.856367783753267  19.17797440422574  59.6704735702297  8.30908208305754  -6.071173163976638  53.11071857223861  53.84287829174596  -47.56884926794975  24.460237169637164  0.000000
1.0919999999999996  0.000000  0.000000  0.000000  -24.514151219357757  7.406175279467814  20.22556568522352  59.88873436057518  8.324602254501132  -5.439515223169111  52.55302762188164  54.76171145774218  -47.86057481465062  24.47295863067862  0.000000
1.1309999999999996  0.000000  0.000000  0.000000  -24.835450740349696  7.943656990544987  21.098237414012395  60.11804862339053  8.418275151087181  -4.730808125888844  51.95482188736918  55.60814846490957  -48.052306299388725  24.482526756371872  0.000000
1.1699999999999995  0.000000  0.000000  0.000000  -25.226914315593348  8.47268419702292  21.833150896070332  60.30210327304639  8.581961650980364  -3.9621780731233205  51.35343100591413  56.38307197764953  -48.1891526338722  24.474821164900305  0.000000
1.2089999999999996  0.000000  0.000000  0.000000  -25.65814272158057  8.986822043379858  22.432785012776023  60.49063883482215  8.81312601604189  -3.1544699985364755  50.76249413732208  57.10022033745517  -48.28855758887213  24.43732586467625  0.000000
1.2479999999999996  0.000000  0.000000  0.000000  -26.14029033166349  9.49288788137364  22.938361160919285  60.63500149253362  9.091687049045257  -2.3156248074452077  50.19446945693352  57.75825986410091  -48.34714639185401  24.35852596188867  0.000000
1.2869999999999995  0.000000  0.000000  0.000000  -26.635782205099094  9.980123793174258  23.355607010694033  60.78824593681698  9.414384227887089  -1.4630679147817438  49.649377972511246  58.36664147021615  -48.34919191780072  24.229183062855096  0.000000
1.3259999999999996  0.000000  0.000000  0.000000  -27.15257412687593  10.453232758902553  23.721644744887012  60.903733379231724  9.760062751513008  -0.6039488989370934  49.12601609501978  58.92360467056735  -48.26747716986215  24.04380233561342  0.000000
